<?xml version="1.0" standalone="no"?>
<!DOCTYPE svg PUBLIC "-//W3C//DTD SVG 20010904//EN"
 "http://www.w3.org/TR/2001/REC-SVG-20010904/DTD/svg10.dtd">
<svg version="1.0" xmlns="http://www.w3.org/2000/svg"
 width="48.000000pt" height="48.000000pt" viewBox="0 0 48.000000 48.000000"
 preserveAspectRatio="xMidYMid meet">

<g transform="translate(0.000000,48.000000) scale(0.100000,-0.100000)"
fill="#000000" stroke="none">
<path d="M213 468 c-6 -7 -13 -24 -15 -37 -3 -22 -13 -28 -93 -49 -93 -25
-102 -28 -93 -37 3 -3 46 6 97 19 63 17 91 21 91 13 0 -7 -9 -18 -20 -25 -11
-7 -20 -20 -20 -30 0 -13 -11 -21 -37 -28 -50 -12 -70 -53 -79 -167 -10 -129
-13 -127 196 -127 209 0 206 -2 196 127 -9 114 -29 155 -78 167 -27 7 -38 15
-38 28 0 10 -9 23 -20 30 -11 7 -20 23 -20 35 0 23 6 26 128 59 34 9 62 21 62
25 0 12 -4 12 -99 -16 -47 -14 -85 -24 -85 -22 -13 39 -54 59 -73 35z m45 -61
c3 -42 1 -47 -17 -47 -18 0 -21 6 -21 43 0 24 3 47 7 51 16 15 28 -3 31 -47z
m42 -87 c0 -18 -7 -20 -60 -20 -53 0 -60 2 -60 20 0 18 7 20 60 20 53 0 60 -2
60 -20z m-140 -120 l0 -80 -51 0 -51 0 6 31 c3 17 6 42 6 56 0 29 42 73 70 73
18 0 20 -6 20 -80z m140 0 l0 -80 -60 0 -60 0 0 80 0 80 60 0 60 0 0 -80z m85
55 c16 -16 25 -36 25 -57 0 -18 3 -43 6 -55 6 -22 3 -23 -45 -23 l-51 0 0 80
c0 74 2 80 20 80 12 0 32 -11 45 -25z m33 -192 l-3 -38 -175 0 -175 0 -3 38
-3 37 181 0 181 0 -3 -37z"/>
</g>
</svg>
