<?xml version="1.0" standalone="no"?>
<!DOCTYPE svg PUBLIC "-//W3C//DTD SVG 20010904//EN"
 "http://www.w3.org/TR/2001/REC-SVG-20010904/DTD/svg10.dtd">
<svg version="1.0" xmlns="http://www.w3.org/2000/svg"
 width="48.000000pt" height="48.000000pt" viewBox="0 0 48.000000 48.000000"
 preserveAspectRatio="xMidYMid meet">

<g transform="translate(0.000000,48.000000) scale(0.100000,-0.100000)"
fill="#000000" stroke="none">
<path d="M127 414 c-3 -3 -2 -17 4 -31 19 -51 11 -77 -29 -95 -64 -30 -102
-74 -102 -116 0 -31 7 -45 38 -75 37 -37 65 -46 77 -27 9 15 211 13 235 -2 14
-9 24 -10 34 -3 7 6 32 22 55 38 30 20 41 34 41 52 0 30 -22 41 -102 51 -41 6
-60 15 -94 46 -39 36 -42 42 -32 64 6 13 18 24 27 24 27 1 75 46 68 64 -5 13
-24 16 -110 16 -57 0 -106 -3 -110 -6z m185 -34 c-17 -16 -35 -20 -86 -20 -55
0 -67 3 -76 20 -10 19 -8 20 87 20 l97 0 -22 -20z m-72 -44 c0 -23 -17 -36
-46 -36 -27 0 -34 4 -34 20 0 17 7 20 40 20 22 0 40 -2 40 -4z m-100 -86 c0
-29 -1 -30 -51 -30 l-52 0 38 30 c48 38 65 38 65 0z m125 -10 c35 -36 37 -40
17 -40 -12 0 -22 5 -22 10 0 6 -4 10 -10 10 -5 0 -10 -13 -10 -30 0 -16 5 -30
10 -30 6 0 10 5 10 10 0 6 7 10 15 10 9 0 15 -9 15 -24 0 -50 -23 -75 -33 -36
-4 15 -14 20 -40 20 -44 0 -48 6 -54 81 l-6 59 35 0 c26 0 42 -9 73 -40z
m-121 -48 c13 -21 18 -92 7 -92 -6 0 -11 5 -11 12 0 18 -31 48 -50 48 -10 0
-23 -7 -30 -15 -7 -8 -19 -15 -26 -15 -8 0 -14 7 -14 15 0 8 7 15 15 15 8 0
15 5 15 10 0 6 -7 10 -15 10 -8 0 -15 5 -15 10 0 12 117 14 124 2z m266 -10
c35 -6 46 -12 48 -28 4 -30 -31 -38 -54 -13 -9 10 -24 19 -32 19 -20 0 -52
-29 -52 -47 0 -7 -5 -13 -10 -13 -6 0 -8 11 -5 25 3 14 7 36 10 50 4 20 10 24
28 20 12 -3 42 -9 67 -13z m-295 -72 c0 -18 -6 -26 -23 -28 -13 -2 -25 3 -28
12 -10 26 4 48 28 44 17 -2 23 -10 23 -28z m280 0 c0 -18 -6 -26 -23 -28 -24
-4 -38 18 -28 44 3 9 15 14 28 12 17 -2 23 -10 23 -28z m-155 0 c0 -5 -11 -10
-24 -10 -14 0 -28 5 -31 10 -4 6 7 10 24 10 17 0 31 -4 31 -10z"/>
</g>
</svg>
