<?xml version="1.0" standalone="no"?>
<!DOCTYPE svg PUBLIC "-//W3C//DTD SVG 20010904//EN"
 "http://www.w3.org/TR/2001/REC-SVG-20010904/DTD/svg10.dtd">
<svg version="1.0" xmlns="http://www.w3.org/2000/svg"
 width="48.000000pt" height="48.000000pt" viewBox="0 0 48.000000 48.000000"
 preserveAspectRatio="xMidYMid meet">

<g transform="translate(0.000000,48.000000) scale(0.100000,-0.100000)"
fill="#000000" stroke="none">
<path d="M103 460 c-4 -14 -14 -20 -32 -20 -47 0 -51 -14 -51 -156 0 -78 -4
-135 -10 -139 -14 -9 -12 -119 2 -133 17 -17 439 -17 456 0 14 14 16 124 2
133 -6 4 -10 61 -10 139 0 142 -4 156 -51 156 -18 0 -28 6 -32 20 -3 12 -14
20 -27 20 -13 0 -24 -8 -27 -20 -5 -18 -14 -20 -83 -20 -69 0 -78 2 -83 20 -3
12 -14 20 -27 20 -13 0 -24 -8 -27 -20z m37 -10 c0 -5 -4 -10 -10 -10 -5 0
-10 5 -10 10 0 6 5 10 10 10 6 0 10 -4 10 -10z m220 0 c0 -5 -4 -10 -10 -10
-5 0 -10 5 -10 10 0 6 5 10 10 10 6 0 10 -4 10 -10z m80 -160 l0 -130 -200 0
-200 0 0 130 0 130 200 0 200 0 0 -130z m-380 -170 c0 -16 7 -20 30 -20 23 0
30 4 30 20 0 19 7 20 120 20 113 0 120 -1 120 -20 0 -16 7 -20 30 -20 23 0 30
4 30 20 0 13 7 20 20 20 31 0 27 -44 -5 -58 -14 -7 -30 -23 -37 -37 l-11 -25
-147 0 -147 0 -11 25 c-7 14 -23 30 -37 37 -32 14 -36 58 -5 58 13 0 20 -7 20
-20z m40 10 c0 -5 -4 -10 -10 -10 -5 0 -10 5 -10 10 0 6 5 10 10 10 6 0 10 -4
10 -10z m300 0 c0 -5 -4 -10 -10 -10 -5 0 -10 5 -10 10 0 6 5 10 10 10 6 0 10
-4 10 -10z m-339 -91 c8 -16 6 -19 -16 -19 -20 0 -25 5 -25 25 0 28 24 25 41
-6z m396 -16 c-3 -2 -16 -3 -29 -1 l-23 3 25 25 25 25 3 -23 c2 -13 1 -26 -1
-29z"/>
<path d="M172 373 c-54 -26 -86 -77 -87 -136 0 -27 5 -52 11 -54 6 -2 8 10 6
33 l-4 35 38 -3 c36 -3 39 -6 42 -35 4 -39 22 -45 22 -7 0 44 -17 64 -55 64
-41 0 -43 7 -14 44 43 55 112 71 172 39 28 -15 29 -18 12 -21 -45 -8 -65 -89
-25 -99 11 -3 23 -16 26 -29 6 -23 24 -34 24 -15 0 25 -21 61 -35 61 -12 0
-15 8 -13 28 2 22 9 28 34 30 24 2 33 -2 42 -23 7 -14 12 -44 12 -66 0 -27 4
-38 11 -33 7 4 9 25 7 55 -11 114 -127 181 -226 132z"/>
<path d="M160 85 c0 -25 1 -25 80 -25 79 0 80 0 80 25 0 14 -4 25 -10 25 -5 0
-10 -7 -10 -15 0 -12 -13 -15 -60 -15 -47 0 -60 3 -60 15 0 8 -4 15 -10 15 -5
0 -10 -11 -10 -25z"/>
</g>
</svg>
