<?xml version="1.0" standalone="no"?>
<!DOCTYPE svg PUBLIC "-//W3C//DTD SVG 20010904//EN"
 "http://www.w3.org/TR/2001/REC-SVG-20010904/DTD/svg10.dtd">
<svg version="1.0" xmlns="http://www.w3.org/2000/svg"
 width="48.000000pt" height="48.000000pt" viewBox="0 0 48.000000 48.000000"
 preserveAspectRatio="xMidYMid meet">

<g transform="translate(0.000000,48.000000) scale(0.100000,-0.100000)"
fill="#000000" stroke="none">
<path d="M12 388 c-7 -7 -12 -33 -12 -60 0 -37 4 -50 20 -58 11 -6 20 -19 20
-30 0 -11 -9 -24 -20 -30 -16 -8 -20 -21 -20 -58 0 -27 5 -53 12 -60 17 -17
439 -17 456 0 7 7 12 33 12 60 0 37 -4 50 -20 58 -26 14 -26 46 0 60 16 8 20
21 20 58 0 27 -5 53 -12 60 -17 17 -439 17 -456 0z m448 -51 c0 -31 -6 -49
-20 -62 -25 -23 -25 -47 0 -70 14 -13 20 -31 20 -62 l0 -43 -220 0 -220 0 0
43 c0 31 6 49 20 62 25 23 25 47 0 70 -14 13 -20 31 -20 62 l0 43 220 0 220 0
0 -43z"/>
<path d="M96 351 c-4 -5 -2 -12 3 -15 5 -4 12 -2 15 3 4 5 2 12 -3 15 -5 4
-12 2 -15 -3z"/>
<path d="M96 301 c-4 -5 -2 -12 3 -15 5 -4 12 -2 15 3 4 5 2 12 -3 15 -5 4
-12 2 -15 -3z"/>
<path d="M203 293 c-4 -11 1 -22 15 -31 29 -19 28 -28 -5 -27 -41 0 -43 -35
-3 -58 l30 -18 72 43 c85 52 100 70 75 95 -16 16 -19 16 -48 -1 -28 -17 -33
-17 -70 -2 -50 20 -58 20 -66 -1z m70 -19 c42 -14 48 -14 69 0 27 19 38 20 38
3 0 -6 -32 -31 -70 -54 -61 -37 -73 -41 -90 -30 -27 16 -25 29 3 22 12 -3 31
2 42 11 17 13 18 16 5 24 -24 14 -56 39 -49 40 3 0 26 -7 52 -16z"/>
<path d="M96 251 c-4 -5 -2 -12 3 -15 5 -4 12 -2 15 3 4 5 2 12 -3 15 -5 4
-12 2 -15 -3z"/>
<path d="M96 201 c-4 -5 -2 -12 3 -15 5 -4 12 -2 15 3 4 5 2 12 -3 15 -5 4
-12 2 -15 -3z"/>
<path d="M96 151 c-4 -5 -2 -12 3 -15 5 -4 12 -2 15 3 4 5 2 12 -3 15 -5 4
-12 2 -15 -3z"/>
</g>
</svg>
