<?xml version="1.0" standalone="no"?>
<!DOCTYPE svg PUBLIC "-//W3C//DTD SVG 20010904//EN"
 "http://www.w3.org/TR/2001/REC-SVG-20010904/DTD/svg10.dtd">
<svg version="1.0" xmlns="http://www.w3.org/2000/svg"
 width="48.000000pt" height="48.000000pt" viewBox="0 0 48.000000 48.000000"
 preserveAspectRatio="xMidYMid meet">

<g transform="translate(0.000000,48.000000) scale(0.100000,-0.100000)"
fill="#000000" stroke="none">
<path d="M205 468 c-3 -7 -13 -42 -23 -78 l-19 -65 -64 -3 c-96 -5 -99 -9 -99
-162 0 -161 -1 -160 132 -160 70 0 99 4 107 14 10 12 20 12 68 -1 46 -12 58
-12 68 -1 15 16 108 385 101 397 -3 5 -27 14 -52 20 -40 10 -49 10 -64 -4 -16
-15 -19 -15 -34 0 -9 9 -16 20 -16 25 0 4 -20 13 -44 19 -56 14 -56 14 -61 -1z
m73 -18 c7 0 18 -11 24 -25 12 -26 54 -35 74 -15 10 10 84 -5 84 -16 0 -7 -93
-368 -95 -372 -1 -1 -25 3 -54 10 -50 11 -52 13 -49 42 3 26 9 32 48 43 53 16
73 33 64 57 -6 14 -14 17 -42 12 -48 -7 -72 8 -72 46 0 33 1 33 84 12 15 -4
26 -2 26 4 0 6 -25 16 -55 23 -30 7 -62 20 -71 31 -10 10 -27 18 -40 18 -22 0
-22 0 -8 58 22 85 22 85 47 78 12 -3 28 -6 35 -6z m-43 -290 l0 -135 -105 0
-105 0 -3 124 c-1 69 0 131 2 138 4 11 30 13 108 11 l103 -3 0 -135z m89 6
c54 10 44 -10 -14 -28 l-50 -16 0 30 c0 25 2 28 14 19 9 -8 28 -10 50 -5z"/>
<path d="M216 382 c-3 -6 -1 -14 5 -17 15 -10 25 3 12 16 -7 7 -13 7 -17 1z"/>
<path d="M265 369 c-10 -15 3 -25 16 -12 7 7 7 13 1 17 -6 3 -14 1 -17 -5z"/>
<path d="M300 350 c0 -5 7 -10 15 -10 8 0 15 5 15 10 0 6 -7 10 -15 10 -8 0
-15 -4 -15 -10z"/>
<path d="M350 340 c0 -5 5 -10 10 -10 6 0 10 5 10 10 0 6 -4 10 -10 10 -5 0
-10 -4 -10 -10z"/>
<path d="M392 329 c2 -6 8 -10 13 -10 5 0 11 4 13 10 2 6 -4 11 -13 11 -9 0
-15 -5 -13 -11z"/>
<path d="M270 312 c0 -11 61 -32 93 -32 30 0 10 17 -29 24 -19 4 -42 10 -50
13 -8 3 -14 0 -14 -5z"/>
<path d="M69 231 c-20 -20 -29 -39 -29 -61 0 -43 47 -90 90 -90 43 0 90 47 90
90 0 43 -47 90 -90 90 -22 0 -41 -9 -61 -29z m75 -13 c9 -35 8 -38 -14 -38
-11 0 -20 3 -20 8 0 19 13 52 20 52 4 0 10 -10 14 -22z m-51 -16 c-3 -12 -12
-22 -19 -22 -18 0 -18 9 3 32 20 22 24 19 16 -10z m107 -14 c0 -4 -7 -8 -15
-8 -8 0 -15 4 -15 9 0 5 -3 18 -7 28 -6 17 -5 17 15 -1 12 -11 22 -23 22 -28z
m-110 -37 c0 -5 3 -18 7 -28 6 -17 5 -17 -15 1 -26 22 -28 36 -7 36 8 0 15 -4
15 -9z m55 -18 c-11 -46 -19 -46 -30 0 -6 23 -4 27 15 27 19 0 21 -4 15 -27z
m55 19 c0 -5 -10 -17 -22 -28 -20 -18 -21 -18 -15 -1 4 10 7 23 7 28 0 5 7 9
15 9 8 0 15 -4 15 -8z"/>
</g>
</svg>
